<svg width="113" height="18" viewBox="0 0 113 18" fill="none" xmlns="http://www.w3.org/2000/svg">
<path d="M26.9822 10.0962L30.0336 10.0946L28.5139 6.84929L26.9822 10.0962Z" fill="#EA3354"></path>
<path d="M73.8063 6.63404H69.8023V8.19911H73.8063C74.7434 8.19911 74.9232 7.79701 74.9232 7.39489V7.37986C74.9232 7.00611 74.7451 6.63237 73.8063 6.63237" fill="#EA3354"></path>
<path d="M14.8214 7.00612C14.8214 6.56229 14.5535 6.34706 13.7495 6.34706H9.92533V7.68355H13.7495C14.5535 7.68355 14.8214 7.43994 14.8214 7.03783" fill="#EA3354"></path>
<path d="M15.2675 10.8571V10.8137C15.2675 10.4683 15.1326 10.1246 14.0919 10.1246H9.92533V11.6046H14.0919C15.1344 11.6046 15.2675 11.1874 15.2675 10.8571Z" fill="#EA3354"></path>
<path d="M90.1941 10.6135V14.3776H85.6697V10.6135L79.7311 3.69077H85.2237L88.1264 7.23804L91.1035 3.69077H95.9564L90.1958 10.6135H90.1941ZM79.8936 14.376H75.2206C75.1393 14.1808 75.1099 13.9689 75.1307 13.7586V12.8543C75.1307 11.4761 74.6396 11.2024 73.0474 11.2024H69.8023V14.3776H65.2624V3.69077H75.0269C79.0015 3.69077 79.6257 5.12736 79.6257 6.65072V6.72248C79.6257 8.34595 78.2564 9.02002 77.0652 9.23693C78.45 9.38042 79.7294 9.95607 79.7294 11.6496V13.6168C79.6931 13.8587 79.7519 14.104 79.8936 14.3059V14.3776V14.376ZM51.4661 14.376V3.6891H63.046V6.41879H56.0217V7.56841H62.823V10.3699H56.0217V11.6196H63.1514V14.376H51.4661ZM45.0659 6.92102V14.376H40.5415V6.92102H36.0171V3.6891H49.5921V6.92102H45.0659ZM32.0563 14.376L31.2974 12.7809H25.7166L24.9577 14.376H20.4177L25.6717 3.6891H31.5498L36.8625 14.376H32.0546H32.0563ZM15.2536 14.376H5.38537V3.6891H15.2536C18.4244 3.6891 19.4962 4.72358 19.4962 6.17353V6.24528C19.4962 7.75362 18.127 8.31423 17.2781 8.44271C18.4088 8.60122 20.1342 9.16017 20.1342 11.0706V11.1991C20.1342 13.1096 18.8981 14.3743 15.2519 14.3743M96.6652 17.9983L104.63 9.32536L96.6652 0.00835075L96.6618 0.0066806L96.6548 0V0.0066806H0V18H96.6635L96.6652 17.9983Z" fill="#EA3354"></path>
<path d="M108.843 13.8854L112.93 9.43549L108.843 4.65518V4.65351L108.84 4.65017V4.65351H103.97V4.65518L108.057 9.43549L103.97 13.8854V13.8871H108.845H108.843V13.8854Z" fill="#EA3354"></path>
<path fill-rule="evenodd" clip-rule="evenodd" d="M90.1941 14.3776V10.6135H90.1958L95.9564 3.69077H91.1035L88.1264 7.23804L85.2237 3.69077H79.7311L85.6697 10.6135V14.3776H90.1941ZM75.2206 14.376H79.8936V14.3059C79.7519 14.104 79.6931 13.8587 79.7294 13.6168V11.6496C79.7294 9.95607 78.45 9.38042 77.0652 9.23693C78.2564 9.02002 79.6257 8.34595 79.6257 6.72248V6.65072C79.6257 5.12736 79.0015 3.69077 75.0269 3.69077H65.2624V14.3776H69.8023V11.2024H73.0474C74.6396 11.2024 75.1307 11.4761 75.1307 12.8543V13.7586C75.1099 13.9689 75.1393 14.1808 75.2206 14.376ZM51.4661 3.6891V14.376H63.1514V11.6196H56.0217V10.3699H62.823V7.56841H56.0217V6.41879H63.046V3.6891H51.4661ZM45.0659 14.376V6.92102H49.5921V3.6891H36.0171V6.92102H40.5415V14.376H45.0659ZM31.2974 12.7809L32.0563 14.376H36.8625L31.5498 3.6891H25.6717L20.4177 14.376H24.9577L25.7166 12.7809H31.2974ZM5.38537 14.376H15.2536L15.2519 14.3743C18.8981 14.3743 20.1342 13.1096 20.1342 11.1991V11.0706C20.1342 9.16017 18.4088 8.60122 17.2781 8.44271C18.127 8.31423 19.4962 7.75362 19.4962 6.24528V6.17353C19.4962 4.72358 18.4244 3.6891 15.2536 3.6891H5.38537V14.376ZM14.8214 7.00612C14.8214 6.56229 14.5535 6.34706 13.7495 6.34706H9.92533V7.68355H13.7495C14.5535 7.68355 14.8214 7.43994 14.8214 7.03783V7.00612ZM69.8023 6.63404H73.8063V6.63237C74.7451 6.63237 74.9232 7.00611 74.9232 7.37986V7.39489C74.9232 7.79701 74.7434 8.19911 73.8063 8.19911H69.8023V6.63404ZM30.0336 10.0946L26.9822 10.0962L28.5139 6.84929L30.0336 10.0946ZM15.2675 10.8137V10.8571C15.2675 11.1874 15.1344 11.6046 14.0919 11.6046H9.92533V10.1246H14.0919C15.1326 10.1246 15.2675 10.4683 15.2675 10.8137Z" fill="white"></path>
</svg>