<?xml version="1.0" encoding="UTF-8" standalone="no"?>
<!DOCTYPE svg PUBLIC "-//W3C//DTD SVG 1.1//EN" "http://www.w3.org/Graphics/SVG/1.1/DTD/svg11.dtd">
<svg xmlns="http://www.w3.org/2000/svg" version="1.1" viewBox="0.00 0.00 244.00 57.00">
<path fill="#ffe000" d="
  M 60.74 25.03
  C 57.03 14.61 50.86 6.56 40.20 2.77
  C 38.59 2.20 36.52 2.19 34.82 1.58
  Q 33.67 1.16 34.90 1.21
  C 47.70 1.75 57.70 12.90 60.85 24.63
  Q 60.99 25.12 60.87 25.63
  Q 60.88 25.63 60.87 25.63
  Q 60.84 25.31 60.74 25.03
  Z"
/>
<path fill="#ffe000" d="
  M 32.85 57.00
  L 26.80 57.00
  C 3.53 54.10 -9.32 28.85 7.86 10.39
  C 16.74 0.84 26.66 -0.34 39.00 3.07
  Q 50.05 6.13 56.53 17.39
  Q 56.62 17.55 56.47 17.65
  L 56.46 17.66
  Q 56.31 17.76 56.20 17.61
  C 48.40 6.89 34.65 0.96 21.76 6.04
  C 2.94 13.44 -1.22 38.22 17.80 48.48
  C 29.72 54.92 48.01 51.17 53.58 37.22
  Q 53.76 36.77 55.84 32.02
  Q 57.25 28.82 57.06 25.19
  Q 57.05 24.95 57.13 25.18
  C 63.20 42.42 49.10 55.16 32.85 57.00
  Z
  M 57.32 33.09
  C 57.20 39.55 52.48 45.88 47.37 49.48
  Q 47.25 49.56 47.33 49.68
  L 47.34 49.69
  Q 47.42 49.81 47.54 49.73
  Q 54.17 45.50 56.86 38.24
  C 57.62 36.22 58.32 34.68 57.73 33.02
  Q 57.34 31.95 57.32 33.09
  Z"
/>
<path fill="#ffffff" d="
  M 86.43 18.78
  Q 86.78 14.91 86.02 11.06
  Q 85.56 8.75 87.78 7.97
  L 92.71 6.23
  Q 95.02 5.41 95.02 7.87
  Q 95.01 22.39 95.01 37.50
  Q 95.01 40.67 92.28 41.63
  C 85.91 43.90 77.35 44.05 71.87 39.89
  C 66.92 36.14 66.01 28.62 69.32 23.42
  C 72.89 17.82 79.88 16.48 85.91 19.09
  Q 86.39 19.30 86.43 18.78
  Z
  M 86.49 33.66
  L 86.53 27.86
  A 2.26 2.26 0.0 0 0 84.28 25.58
  L 82.19 25.57
  A 5.37 5.07 0.3 0 0 76.79 30.61
  L 76.79 30.79
  A 5.37 5.07 0.3 0 0 82.13 35.89
  L 84.22 35.90
  A 2.26 2.26 0.0 0 0 86.49 33.66
  Z"
/>
<path fill="#ffffff" d="
  M 136.50 24.81
  L 136.50 46.63
  A 2.42 2.40 80.2 0 1 134.91 48.90
  L 129.02 51.00
  A 0.83 0.83 0.0 0 1 127.91 50.22
  L 127.87 24.70
  A 0.41 0.41 0.0 0 0 127.45 24.30
  L 125.57 24.36
  A 1.22 1.22 0.0 0 1 124.56 22.40
  L 127.46 18.65
  Q 127.80 18.22 127.83 17.68
  C 128.38 9.64 130.52 6.76 138.75 6.04
  C 142.18 5.74 142.94 7.84 143.98 10.54
  A 1.22 1.21 78.6 0 1 142.89 12.19
  C 139.39 12.33 135.40 12.64 136.59 17.56
  Q 136.71 18.06 137.22 18.06
  L 140.27 18.09
  A 1.73 1.73 0.0 0 1 141.98 19.90
  L 141.84 22.78
  A 1.64 1.63 0.9 0 1 140.22 24.34
  L 136.94 24.37
  Q 136.50 24.37 136.50 24.81
  Z"
/>
<path fill="#ffffff" d="
  M 179.97 19.11
  C 185.93 16.39 192.53 17.49 195.99 23.29
  C 198.89 28.16 198.36 35.23 194.18 39.20
  C 188.67 44.44 178.85 44.07 172.41 40.85
  Q 171.07 40.17 171.04 38.37
  Q 170.85 26.33 170.82 14.28
  C 170.81 12.87 170.41 11.48 170.19 10.11
  A 1.59 1.58 75.5 0 1 171.20 8.39
  L 177.29 6.11
  Q 179.41 5.31 179.41 7.58
  L 179.40 18.75
  A 0.40 0.40 0.0 0 0 179.97 19.11
  Z
  M 179.37 27.85
  L 179.39 33.47
  A 2.26 2.26 0.0 0 0 181.67 35.71
  L 183.94 35.70
  A 5.19 5.02 -0.3 0 0 189.10 30.65
  L 189.10 30.55
  A 5.19 5.02 -0.3 0 0 183.88 25.56
  L 181.61 25.57
  A 2.26 2.26 0.0 0 0 179.37 27.85
  Z"
/>
<path fill="#ffe000" d="
  M 20.83 39.94
  Q 30.47 41.42 38.61 36.15
  C 43.72 32.84 52.12 22.67 45.44 17.07
  C 41.88 14.09 36.10 13.80 31.45 14.96
  C 23.36 16.96 15.89 22.21 10.08 28.13
  Q 8.48 29.75 9.81 27.90
  C 16.18 19.00 26.27 11.69 37.49 10.53
  C 54.23 8.80 56.83 26.46 46.55 36.06
  Q 33.99 47.77 16.75 44.63
  C 14.77 44.26 13.61 43.15 13.92 40.97
  Q 15.56 29.58 22.89 20.94
  C 25.37 18.01 28.41 17.36 31.93 16.36
  Q 32.46 16.21 32.10 16.63
  Q 23.59 26.57 20.39 39.27
  Q 20.24 39.84 20.83 39.94
  Z"
/>
<path fill="#ffffff" d="
  M 238.65 24.87
  L 238.72 35.50
  A 0.74 0.72 6.5 0 0 239.30 36.21
  Q 240.77 36.52 241.98 35.61
  A 0.92 0.92 0.0 0 1 243.46 36.32
  L 243.55 40.35
  A 1.91 1.89 78.4 0 1 242.37 42.16
  C 237.89 44.00 229.97 44.30 230.04 37.25
  Q 230.10 31.00 230.16 24.75
  Q 230.16 24.30 229.71 24.31
  L 227.73 24.34
  A 1.16 1.15 -72.0 0 1 226.79 22.49
  L 229.86 18.41
  Q 230.15 18.02 230.15 17.54
  L 230.17 14.06
  Q 230.17 12.69 231.50 12.31
  L 237.08 10.72
  A 1.20 1.20 0.0 0 1 238.61 11.85
  L 238.70 17.50
  Q 238.71 18.05 239.25 18.06
  L 242.21 18.11
  Q 242.84 18.12 243.08 18.71
  Q 244.12 21.32 242.89 23.81
  Q 242.65 24.30 242.10 24.31
  L 239.13 24.38
  Q 238.65 24.39 238.65 24.87
  Z"
/>
<path fill="#ffffff" d="
  M 113.45 27.32
  Q 114.67 27.91 114.54 26.56
  L 114.43 25.47
  Q 114.26 23.75 112.57 23.41
  C 108.94 22.68 105.69 23.79 102.64 24.93
  Q 100.41 25.76 99.88 23.44
  L 99.50 21.78
  Q 99.02 19.65 101.10 18.98
  C 106.92 17.11 123.10 14.92 123.16 24.74
  C 123.19 30.12 122.68 35.57 123.97 40.79
  A 0.73 0.73 0.0 0 1 123.54 41.64
  C 121.60 42.43 116.19 44.41 114.68 41.62
  Q 114.45 41.19 114.03 41.43
  C 108.12 44.81 97.86 43.51 97.63 34.79
  C 97.42 26.46 107.58 24.47 113.45 27.32
  Z
  M 113.89 32.31
  C 111.35 31.23 107.65 30.47 106.67 33.84
  Q 106.01 36.08 108.40 37.15
  Q 110.97 38.31 114.17 36.33
  Q 114.50 36.12 114.50 35.73
  L 114.50 33.24
  A 1.01 1.00 -78.6 0 0 113.89 32.31
  Z"
/>
<path fill="#ffffff" d="
  M 157.84 41.41
  C 152.25 44.66 143.03 43.66 141.56 36.26
  C 139.72 26.91 151.14 24.26 157.57 27.45
  Q 158.64 27.98 158.46 26.80
  L 158.25 25.43
  Q 158.06 24.20 156.93 23.70
  C 153.79 22.31 149.42 23.75 146.52 24.93
  Q 144.22 25.86 143.70 23.43
  L 143.36 21.84
  Q 142.88 19.61 145.06 18.92
  C 150.83 17.09 167.04 14.89 167.02 24.98
  C 167.01 30.16 166.50 35.51 167.72 40.55
  A 1.05 1.05 0.0 0 1 167.07 41.78
  C 164.70 42.66 160.06 44.27 158.55 41.60
  Q 158.29 41.15 157.84 41.41
  Z
  M 158.49 34.02
  C 158.53 33.30 158.39 32.78 157.73 32.39
  C 149.19 27.31 147.15 40.93 157.92 36.54
  Q 158.40 36.34 158.43 35.82
  C 158.46 35.23 158.44 34.74 158.49 34.02
  Z"
/>
<path fill="#ffffff" d="
  M 209.50 32.25
  A 0.37 0.37 0.0 0 0 209.16 32.75
  Q 211.60 39.27 222.09 34.66
  Q 224.92 33.42 224.65 36.51
  L 224.56 37.47
  Q 224.27 40.72 221.20 41.82
  Q 214.08 44.37 208.39 42.11
  C 200.90 39.15 197.80 30.72 202.39 23.86
  C 207.22 16.64 218.04 15.43 223.56 22.19
  Q 226.82 26.18 226.16 30.58
  Q 225.91 32.24 224.23 32.24
  L 209.50 32.25
  Z
  M 209.97 27.50
  L 217.61 27.48
  A 0.10 0.10 0.0 0 0 217.71 27.38
  L 217.71 27.32
  A 3.75 2.86 -0.1 0 0 213.96 24.47
  L 213.62 24.47
  A 3.75 2.86 -0.1 0 0 209.87 27.34
  L 209.87 27.40
  A 0.10 0.10 0.0 0 0 209.97 27.50
  Z"
/>
</svg>
