<?xml version="1.0" encoding="UTF-8" standalone="no"?>
<!DOCTYPE svg PUBLIC "-//W3C//DTD SVG 1.1//EN" "http://www.w3.org/Graphics/SVG/1.1/DTD/svg11.dtd">
<svg xmlns="http://www.w3.org/2000/svg" version="1.1" viewBox="0.00 0.00 150.00 60.00">
<path fill="#2384c6" d="
  M 25.59 10.31
  C 22.48 12.27 21.70 16.38 22.54 19.93
  Q 22.89 21.42 21.74 20.40
  C 17.48 16.62 19.32 9.46 25.18 9.06
  Q 27.86 8.88 25.59 10.31
  Z"
/>
<path fill="#2384c6" d="
  M 23.64 20.39
  Q 21.52 13.37 28.16 9.74
  Q 28.70 9.44 29.17 9.84
  Q 34.38 14.25 30.71 19.43
  C 29.53 21.08 24.55 23.37 23.64 20.39
  Z"
/>
<path fill="#2384c6" d="
  M 0.00 34.85
  L 0.00 30.43
  Q 3.41 15.95 18.05 16.45
  A 0.70 0.70 0.0 0 1 18.66 17.46
  Q 13.60 27.73 8.13 38.18
  C 6.11 42.06 4.46 46.23 7.02 50.19
  C 7.32 50.64 7.80 50.91 8.06 51.32
  Q 8.40 51.85 7.86 51.53
  C 4.91 49.79 1.48 46.66 2.90 43.15
  Q 3.19 42.46 2.78 41.82
  Q 0.72 38.62 0.00 34.85
  Z"
/>
<path fill="#ffffff" d="
  M 17.27 43.37
  Q 22.75 32.50 27.68 22.59
  A 0.68 0.68 0.0 0 1 28.85 22.51
  Q 35.20 31.78 29.93 40.91
  C 28.03 44.19 21.44 50.34 17.24 47.55
  Q 16.76 47.24 16.69 46.67
  Q 16.46 44.97 17.27 43.37
  Z"
/>
<path fill="#50b7cc" d="
  M 150.00 25.02
  Q 149.99 25.24 150.00 25.46
  L 149.08 28.55
  Q 148.94 29.02 148.45 29.01
  L 143.78 28.99
  A 0.67 0.66 -82.6 0 0 143.14 29.49
  L 139.88 42.46
  Q 139.81 42.75 139.51 42.75
  L 135.77 42.75
  Q 135.54 42.75 135.60 42.53
  L 138.84 29.59
  Q 138.99 28.98 138.36 28.98
  L 133.46 28.99
  Q 133.04 28.99 133.15 28.58
  L 133.99 25.48
  Q 134.14 24.94 134.70 24.94
  L 150.00 25.02
  Z"
/>
<path fill="#ffffff" d="
  M 49.53 25.27
  L 45.43 42.39
  A 0.45 0.45 0.0 0 1 45.01 42.73
  L 41.59 42.88
  A 0.45 0.45 0.0 0 1 41.14 42.32
  L 45.15 26.24
  A 0.45 0.45 0.0 0 1 45.44 25.92
  L 48.95 24.74
  A 0.45 0.45 0.0 0 1 49.53 25.27
  Z"
/>
<path fill="#ffffff" d="
  M 54.35 31.08
  L 51.67 42.57
  Q 51.62 42.77 51.42 42.77
  L 47.50 42.78
  Q 47.29 42.78 47.34 42.57
  L 50.96 27.59
  A 3.44 3.44 0.0 0 1 56.93 26.19
  L 63.15 33.58
  A 0.42 0.42 0.0 0 0 63.88 33.39
  L 65.62 25.24
  A 0.34 0.33 5.1 0 1 65.95 24.97
  L 69.74 24.95
  A 0.24 0.23 -83.0 0 1 69.96 25.24
  L 65.90 42.06
  Q 65.73 42.76 65.00 42.77
  L 62.05 42.79
  Q 61.52 42.79 61.64 42.27
  L 62.12 40.19
  A 1.45 1.44 -58.5 0 0 61.82 38.94
  L 55.07 30.91
  Q 54.54 30.28 54.35 31.08
  Z"
/>
<path fill="#ffffff" d="
  M 68.17 42.31
  L 71.80 27.25
  Q 72.35 24.97 74.60 24.97
  L 84.78 24.97
  A 3.50 3.49 6.9 0 1 88.18 29.30
  L 85.48 40.30
  A 3.26 3.25 -83.1 0 1 82.32 42.78
  L 68.54 42.78
  Q 68.06 42.78 68.17 42.31
  Z
  M 73.69 38.21
  A 0.37 0.37 0.0 0 0 74.05 38.67
  L 81.21 38.65
  A 0.37 0.37 0.0 0 0 81.57 38.36
  L 83.59 29.44
  A 0.37 0.37 0.0 0 0 83.23 28.99
  L 76.15 28.94
  A 0.37 0.37 0.0 0 0 75.78 29.23
  L 73.69 38.21
  Z"
/>
<path fill="#ffffff" d="
  M 95.23 25.71
  L 91.33 42.17
  A 0.79 0.79 0.0 0 1 90.58 42.78
  L 87.81 42.84
  A 0.79 0.79 0.0 0 1 87.02 41.86
  L 90.87 26.58
  A 0.79 0.79 0.0 0 1 91.31 26.04
  L 94.14 24.81
  A 0.79 0.79 0.0 0 1 95.23 25.71
  Z"
/>
<path fill="#2384c6" d="
  M 111.72 34.57
  Q 113.40 37.52 110.95 41.41
  Q 110.11 42.74 108.50 42.74
  Q 101.75 42.76 95.03 42.74
  Q 94.27 42.74 94.45 42.00
  L 97.89 27.70
  A 3.54 3.54 0.0 0 1 101.37 24.99
  Q 105.19 25.02 109.58 24.90
  C 115.46 24.73 115.60 31.36 111.91 33.79
  Q 111.45 34.09 111.72 34.57
  Z
  M 108.68 31.67
  A 0.59 0.59 0.0 0 0 109.24 31.25
  L 109.70 29.73
  A 0.59 0.59 0.0 0 0 109.14 28.97
  L 102.53 28.96
  A 0.59 0.59 0.0 0 0 101.96 29.39
  L 101.50 31.04
  A 0.59 0.59 0.0 0 0 102.08 31.79
  L 108.68 31.67
  Z
  M 107.6954 36.6428
  A 0.70 0.70 0.0 0 0 106.9905 35.9477
  L 100.5907 35.9924
  A 0.70 0.70 0.0 0 0 99.8956 36.6972
  L 99.9046 37.9972
  A 0.70 0.70 0.0 0 0 100.6095 38.6923
  L 107.0093 38.6476
  A 0.70 0.70 0.0 0 0 107.7044 37.9428
  L 107.6954 36.6428
  Z"
/>
<path fill="#3c9fca" d="
  M 119.98 31.77
  L 126.44 31.80
  A 0.19 0.19 0.0 0 1 126.62 32.04
  L 125.63 35.61
  Q 125.55 35.90 125.26 35.90
  L 118.86 35.83
  A 0.65 0.65 0.0 0 0 118.21 36.35
  L 117.88 37.92
  Q 117.73 38.65 118.48 38.65
  L 128.43 38.68
  A 0.22 0.21 -84.5 0 1 128.64 38.94
  L 127.85 42.43
  A 0.41 0.41 0.0 0 1 127.45 42.75
  L 117.01 42.75
  A 3.65 3.65 0.0 0 1 113.45 38.27
  L 115.85 27.95
  A 3.84 3.84 0.0 0 1 119.58 24.98
  L 131.55 24.94
  Q 132.17 24.94 132.01 25.54
  L 131.25 28.46
  Q 131.11 29.00 130.55 29.00
  L 120.82 28.97
  Q 120.09 28.97 119.92 29.68
  L 119.56 31.23
  Q 119.44 31.76 119.98 31.77
  Z"
/>
</svg>
