<?xml version="1.0" encoding="UTF-8" standalone="no"?>
<!DOCTYPE svg PUBLIC "-//W3C//DTD SVG 1.1//EN" "http://www.w3.org/Graphics/SVG/1.1/DTD/svg11.dtd">
<svg xmlns="http://www.w3.org/2000/svg" version="1.1" viewBox="0.00 0.00 190.00 70.00">
<g stroke-width="2.00" fill="none" stroke-linecap="butt">
<path stroke="#f18f92" vector-effect="non-scaling-stroke" d="
  M 116.18 12.40
  L 121.61 22.44
  Q 121.85 22.89 122.35 22.98
  L 132.71 24.81"
/>
<path stroke="#f18f92" vector-effect="non-scaling-stroke" d="
  M 134.94 32.00
  L 127.77 39.88
  A 1.09 1.09 0.0 0 0 127.49 40.75
  L 128.82 51.37"
/>
<path stroke="#f18f92" vector-effect="non-scaling-stroke" d="
  M 122.65 56.03
  L 112.94 51.20
  A 1.02 1.00 -44.4 0 0 112.03 51.20
  L 102.04 56.14"
/>
<path stroke="#f18f92" vector-effect="non-scaling-stroke" d="
  M 96.32 52.06
  L 97.59 41.36
  Q 97.71 40.37 97.03 39.64
  L 89.58 31.62"
/>
<path stroke="#f18f92" vector-effect="non-scaling-stroke" d="
  M 91.62 25.09
  L 102.93 22.79
  Q 103.43 22.69 103.67 22.24
  L 109.07 12.27"
/>
<path stroke="#f18f92" vector-effect="non-scaling-stroke" d="
  M 106.18 26.63
  A 0.47 0.47 0.0 0 0 105.73 26.95
  L 101.97 38.50
  A 0.47 0.47 0.0 0 0 102.13 39.02
  L 111.90 46.19
  A 0.47 0.47 0.0 0 0 112.46 46.18
  L 122.19 38.99
  A 0.47 0.47 0.0 0 0 122.35 38.47
  L 118.60 26.95
  A 0.47 0.47 0.0 0 0 118.15 26.63
  L 106.18 26.63"
/>
</g>
<path fill="#ffffff" d="
  M 116.18 12.40
  L 121.61 22.44
  Q 121.85 22.89 122.35 22.98
  L 132.71 24.81
  A 23.54 23.17 -86.3 0 1 134.94 32.00
  L 127.77 39.88
  A 1.09 1.09 0.0 0 0 127.49 40.75
  L 128.82 51.37
  A 23.50 23.06 -87.6 0 1 122.65 56.03
  L 112.94 51.20
  A 1.02 1.00 -44.4 0 0 112.03 51.20
  L 102.04 56.14
  A 23.21 22.81 87.8 0 1 96.32 52.06
  L 97.59 41.36
  Q 97.71 40.37 97.03 39.64
  L 89.58 31.62
  A 23.23 22.89 87.4 0 1 91.62 25.09
  L 102.93 22.79
  Q 103.43 22.69 103.67 22.24
  L 109.07 12.27
  A 23.30 22.93 -73.2 0 1 116.18 12.40
  Z
  M 106.18 26.63
  A 0.47 0.47 0.0 0 0 105.73 26.95
  L 101.97 38.50
  A 0.47 0.47 0.0 0 0 102.13 39.02
  L 111.90 46.19
  A 0.47 0.47 0.0 0 0 112.46 46.18
  L 122.19 38.99
  A 0.47 0.47 0.0 0 0 122.35 38.47
  L 118.60 26.95
  A 0.47 0.47 0.0 0 0 118.15 26.63
  L 106.18 26.63
  Z"
/>
<path fill="#e31f24" d="
  M 109.07 12.27
  L 103.67 22.24
  Q 103.43 22.69 102.93 22.79
  L 91.62 25.09
  A 23.28 22.93 -89.1 0 1 109.07 12.27
  Z"
/>
<path fill="#e31f24" d="
  M 116.18 12.40
  A 23.28 22.97 89.9 0 1 132.71 24.81
  L 122.35 22.98
  Q 121.85 22.89 121.61 22.44
  L 116.18 12.40
  Z"
/>
<path fill="#ffffff" d="
  M 18.96 44.54
  A 0.86 0.86 0.0 0 0 19.79 45.62
  L 41.13 45.60
  Q 42.61 45.60 42.22 47.03
  L 40.50 53.25
  A 1.30 1.29 7.6 0 1 39.25 54.20
  L 4.51 54.20
  A 1.28 1.28 0.0 0 1 3.23 52.89
  Q 3.25 52.15 3.85 51.49
  Q 4.21 51.09 4.35 50.57
  L 14.01 13.93
  A 1.42 1.41 7.1 0 1 15.38 12.87
  L 25.97 12.87
  A 1.08 1.08 0.0 0 1 27.01 14.23
  L 18.96 44.54
  Z"
/>
<path fill="#ffffff" d="
  M 65.82 22.29
  L 64.35 27.71
  A 1.22 1.22 0.0 0 0 65.53 29.25
  L 81.97 29.23
  A 1.22 1.22 0.0 0 1 83.15 30.78
  L 81.51 36.68
  A 1.22 1.22 0.0 0 1 80.33 37.57
  L 62.77 37.57
  A 1.22 1.22 0.0 0 0 61.60 38.46
  L 59.97 44.20
  A 1.22 1.22 0.0 0 0 61.14 45.75
  L 83.20 45.75
  A 1.22 1.22 0.0 0 1 84.37 47.30
  L 82.68 53.30
  A 1.22 1.22 0.0 0 1 81.51 54.19
  L 46.08 54.22
  A 1.22 1.22 0.0 0 1 44.90 52.69
  L 55.20 13.79
  A 1.22 1.22 0.0 0 1 56.38 12.88
  L 89.09 12.88
  A 1.22 1.22 0.0 0 1 90.09 14.79
  L 85.89 20.92
  A 1.22 1.22 0.0 0 1 84.88 21.45
  L 67.00 21.39
  A 1.22 1.22 0.0 0 0 65.82 22.29
  Z"
/>
<path fill="#ffffff" d="
  M 167.92 35.24
  Q 168.19 35.31 168.27 35.03
  L 174.08 13.36
  A 0.66 0.66 0.0 0 1 174.72 12.87
  L 185.54 12.87
  A 1.22 1.22 0.0 0 1 186.69 14.50
  C 186.39 15.35 185.83 15.96 185.59 16.85
  Q 180.95 34.34 176.10 52.79
  A 1.90 1.90 0.0 0 1 174.26 54.21
  L 166.45 54.20
  A 1.98 1.96 75.0 0 1 164.74 53.20
  L 153.57 33.37
  Q 152.79 31.99 152.39 33.53
  L 147.22 53.67
  A 0.72 0.71 -82.6 0 1 146.53 54.21
  L 135.06 54.13
  A 0.68 0.67 18.8 0 1 134.52 53.04
  Q 141.29 44.38 140.54 33.30
  Q 140.38 31.05 141.06 28.64
  Q 143.14 21.21 144.98 14.19
  A 1.79 1.78 7.3 0 1 146.71 12.86
  L 154.75 12.86
  A 2.04 2.04 0.0 0 1 156.56 13.96
  Q 162.14 24.69 167.46 34.89
  Q 167.60 35.17 167.92 35.24
  Z"
/>
<path fill="#e31f24" d="
  M 106.18 26.63
  L 118.15 26.63
  A 0.47 0.47 0.0 0 1 118.60 26.95
  L 122.35 38.47
  A 0.47 0.47 0.0 0 1 122.19 38.99
  L 112.46 46.18
  A 0.47 0.47 0.0 0 1 111.90 46.19
  L 102.13 39.02
  A 0.47 0.47 0.0 0 1 101.97 38.50
  L 105.73 26.95
  A 0.47 0.47 0.0 0 1 106.18 26.63
  Z"
/>
<path fill="#e31f24" d="
  M 89.58 31.62
  L 97.03 39.64
  Q 97.71 40.37 97.59 41.36
  L 96.32 52.06
  A 23.26 22.95 88.1 0 1 89.58 31.62
  Z"
/>
<path fill="#e31f24" d="
  M 134.94 32.00
  A 23.24 22.91 88.4 0 1 128.82 51.37
  L 127.49 40.75
  A 1.09 1.09 0.0 0 1 127.77 39.88
  L 134.94 32.00
  Z"
/>
<path fill="#e31f24" d="
  M 122.65 56.03
  A 23.25 22.93 -89.1 0 1 102.04 56.14
  L 112.03 51.20
  A 1.02 1.00 -44.4 0 1 112.94 51.20
  L 122.65 56.03
  Z"
/>
</svg>
