<?xml version="1.0" encoding="UTF-8" standalone="no"?>
<!DOCTYPE svg PUBLIC "-//W3C//DTD SVG 1.1//EN" "http://www.w3.org/Graphics/SVG/1.1/DTD/svg11.dtd">
<svg xmlns="http://www.w3.org/2000/svg" version="1.1" viewBox="0.00 0.00 190.00 70.00">
<path fill="#ffffff" d="
  M 56.94 47.94
  C 45.42 56.57 29.29 44.38 34.30 30.94
  C 37.83 21.47 48.59 18.27 56.96 23.81
  Q 57.54 24.19 57.54 23.50
  L 57.54 13.20
  Q 57.54 10.97 59.59 10.10
  Q 60.05 9.91 60.53 9.97
  Q 63.22 10.33 63.21 13.04
  Q 63.20 29.80 63.23 47.43
  C 63.24 51.58 57.99 51.77 57.60 48.22
  Q 57.52 47.50 56.94 47.94
  Z
  M 57.52 35.89
  A 9.22 9.22 0.0 0 0 48.30 26.67
  A 9.22 9.22 0.0 0 0 39.08 35.89
  A 9.22 9.22 0.0 0 0 48.30 45.11
  A 9.22 9.22 0.0 0 0 57.52 35.89
  Z"
/>
<path fill="#ffffff" d="
  M 91.00 23.32
  L 91.00 13.27
  Q 91.00 11.13 92.90 10.15
  Q 93.41 9.88 93.96 9.97
  Q 96.63 10.39 96.62 13.09
  Q 96.60 30.53 96.66 47.34
  C 96.67 51.58 91.40 51.67 91.07 48.45
  Q 90.98 47.60 90.26 48.06
  C 82.08 53.27 71.48 50.47 67.89 41.25
  C 62.47 27.33 78.22 15.79 90.24 23.73
  Q 91.00 24.23 91.00 23.32
  Z
  M 90.97 35.89
  A 9.22 9.22 0.0 0 0 81.75 26.67
  A 9.22 9.22 0.0 0 0 72.53 35.89
  A 9.22 9.22 0.0 0 0 81.75 45.11
  A 9.22 9.22 0.0 0 0 90.97 35.89
  Z"
/>
<path fill="#ffac00" d="
  M 175.38 24.77
  C 192.96 26.18 194.57 50.72 177.51 54.13
  C 166.60 56.31 157.54 46.29 160.26 35.78
  Q 161.17 32.24 165.91 26.48
  Q 171.35 19.88 175.61 14.19
  Q 177.32 11.92 179.82 13.26
  Q 180.25 13.49 180.49 13.92
  Q 181.59 15.84 180.22 17.58
  L 175.10 24.10
  Q 174.62 24.70 175.38 24.77
  Z
  M 183.85 39.59
  A 9.20 9.20 0.0 0 0 174.65 30.39
  A 9.20 9.20 0.0 0 0 165.45 39.59
  A 9.20 9.20 0.0 0 0 174.65 48.79
  A 9.20 9.20 0.0 0 0 183.85 39.59
  Z"
/>
<path fill="#ffac00" d="
  M 142.37 47.02
  Q 133.75 46.21 129.94 39.16
  C 126.57 32.92 128.10 25.14 133.70 20.63
  C 139.78 15.74 148.29 16.40 153.74 21.84
  C 159.73 27.82 158.94 36.26 153.89 42.55
  Q 147.63 50.33 141.96 57.71
  Q 140.21 59.97 137.80 58.45
  Q 137.42 58.21 137.19 57.81
  Q 136.13 55.92 137.47 54.22
  L 142.64 47.66
  Q 143.09 47.09 142.37 47.02
  Z
  M 152.27 32.18
  A 9.21 9.21 0.0 0 0 143.06 22.97
  A 9.21 9.21 0.0 0 0 133.85 32.18
  A 9.21 9.21 0.0 0 0 143.06 41.39
  A 9.21 9.21 0.0 0 0 152.27 32.18
  Z"
/>
<path fill="#ffffff" d="
  M 0.00 37.91
  L 0.00 33.75
  Q 2.08 24.71 9.78 22.00
  C 27.01 15.93 37.91 39.94 22.11 48.81
  C 12.86 54.00 2.03 48.39 0.00 37.91
  Z
  M 24.08 35.89
  A 9.22 9.22 0.0 0 0 14.86 26.67
  A 9.22 9.22 0.0 0 0 5.64 35.89
  A 9.22 9.22 0.0 0 0 14.86 45.11
  A 9.22 9.22 0.0 0 0 24.08 35.89
  Z"
/>
<path fill="#ffffff" d="
  M 108.33 30.34
  Q 109.08 31.55 110.51 32.01
  C 114.30 33.21 121.39 34.49 123.47 38.30
  C 126.34 43.58 122.44 48.52 117.18 50.07
  C 112.26 51.52 104.64 50.40 101.71 45.43
  A 2.74 2.73 56.7 0 1 102.45 41.83
  C 103.76 40.88 105.43 41.30 106.53 42.37
  C 109.38 45.14 113.28 46.01 116.94 44.36
  C 118.14 43.82 118.92 42.59 118.62 41.23
  A 1.96 1.94 1.8 0 0 117.25 39.78
  Q 113.01 38.59 108.56 37.31
  C 99.05 34.56 100.54 23.45 109.47 21.45
  Q 115.39 20.12 120.65 23.39
  C 122.48 24.53 124.20 27.19 122.12 29.03
  A 2.39 2.39 0.0 0 1 119.05 29.11
  C 116.08 26.77 112.53 25.66 109.11 27.45
  A 2.05 2.04 -30.0 0 0 108.33 30.34
  Z"
/>
</svg>
