<?xml version="1.0" encoding="UTF-8" standalone="no"?>
<!DOCTYPE svg PUBLIC "-//W3C//DTD SVG 1.1//EN" "http://www.w3.org/Graphics/SVG/1.1/DTD/svg11.dtd">
<svg xmlns="http://www.w3.org/2000/svg" version="1.1" viewBox="0.00 0.00 190.00 70.00">
<g stroke-width="2.00" fill="none" stroke-linecap="butt">
<path stroke="#006853" vector-effect="non-scaling-stroke" d="
  M 82.85 55.84
  Q 85.00 53.31 82.46 51.56
  Q 80.71 50.36 77.05 50.83
  Q 76.49 50.90 76.49 51.46
  L 76.49 62.45
  Q 76.49 62.98 77.02 63.02
  C 80.26 63.28 85.41 63.11 84.39 58.30
  Q 84.27 57.75 83.83 57.40
  L 82.94 56.70
  Q 82.44 56.31 82.85 55.84"
/>
<path stroke="#006853" vector-effect="non-scaling-stroke" d="
  M 95.23 58.14
  A 0.42 0.42 0.0 0 1 95.64 57.73
  L 99.01 57.68
  A 0.42 0.42 0.0 0 0 99.43 57.27
  L 99.45 56.20
  A 0.42 0.42 0.0 0 0 99.03 55.77
  L 95.58 55.76
  A 0.42 0.42 0.0 0 1 95.17 55.33
  L 95.25 53.20
  A 0.42 0.42 0.0 0 1 95.66 52.80
  L 99.43 52.75
  A 0.42 0.42 0.0 0 0 99.84 52.31
  L 99.77 51.18
  A 0.42 0.42 0.0 0 0 99.35 50.79
  L 93.18 50.79
  A 0.42 0.42 0.0 0 0 92.76 51.21
  L 92.76 62.58
  A 0.42 0.42 0.0 0 0 93.18 63.00
  L 99.52 63.03
  A 0.42 0.42 0.0 0 0 99.94 62.61
  L 99.96 61.38
  A 0.42 0.42 0.0 0 0 99.53 60.95
  L 95.63 60.97
  A 0.42 0.42 0.0 0 1 95.20 60.54
  L 95.23 58.14"
/>
<path stroke="#006853" vector-effect="non-scaling-stroke" d="
  M 110.40 52.97
  A 0.46 0.46 0.0 0 1 110.86 53.43
  L 110.84 62.51
  A 0.46 0.46 0.0 0 0 111.30 62.97
  L 112.77 62.99
  A 0.46 0.46 0.0 0 0 113.23 62.53
  L 113.26 53.39
  A 0.46 0.46 0.0 0 1 113.74 52.93
  L 116.25 53.06
  A 0.46 0.46 0.0 0 0 116.73 52.67
  L 116.92 51.34
  A 0.46 0.46 0.0 0 0 116.47 50.82
  L 107.54 50.79
  A 0.46 0.46 0.0 0 0 107.08 51.28
  L 107.17 52.57
  A 0.46 0.46 0.0 0 0 107.63 53.00
  L 110.40 52.97"
/>
<path stroke="#006853" vector-effect="non-scaling-stroke" d="
  M 78.69 53.17
  L 78.75 55.45
  A 0.53 0.53 0.0 0 0 79.30 55.97
  L 79.72 55.95
  A 1.91 1.47 -1.7 0 0 81.59 54.43
  L 81.57 54.03
  A 1.91 1.47 -1.7 0 0 79.62 52.61
  L 79.20 52.63
  A 0.53 0.53 0.0 0 0 78.69 53.17"
/>
<path stroke="#006853" vector-effect="non-scaling-stroke" d="
  M 78.70 58.11
  L 78.74 60.75
  A 0.51 0.51 0.0 0 0 79.26 61.25
  L 80.11 61.24
  A 2.30 1.71 -1.0 0 0 82.38 59.49
  L 82.38 59.25
  A 2.30 1.71 -1.0 0 0 80.05 57.58
  L 79.20 57.59
  A 0.51 0.51 0.0 0 0 78.70 58.11"
/>
</g>
<path fill="#ff2400" d="
  M 29.34 22.05
  C 36.06 20.51 32.89 12.03 27.66 13.89
  C 24.76 14.92 24.76 18.65 24.77 21.22
  Q 24.81 31.71 24.80 42.43
  Q 24.80 43.01 24.23 43.01
  L 14.48 43.00
  A 0.39 0.39 0.0 0 1 14.09 42.61
  Q 14.10 30.37 14.12 18.71
  C 14.14 7.90 22.39 1.46 32.72 3.42
  C 43.43 5.45 47.79 18.88 41.23 27.15
  Q 36.00 33.74 27.51 33.10
  A 0.80 0.79 2.0 0 1 26.78 32.32
  L 26.77 21.97
  Q 26.77 21.36 27.37 21.47
  Q 28.07 21.60 28.68 21.95
  A 0.91 0.91 0.0 0 0 29.34 22.05
  Z"
/>
<circle fill="#ff2400" cx="52.51" cy="8.27" r="5.41"/>
<path fill="#ff2400" d="
  M 76.08 13.43
  Q 75.99 13.41 75.89 13.43
  Q 71.97 14.18 71.96 18.12
  Q 71.93 30.24 71.99 42.33
  A 0.68 0.67 -90.0 0 1 71.32 43.01
  L 61.02 43.00
  Q 60.64 43.00 60.64 42.62
  Q 60.76 31.45 60.61 20.55
  Q 60.53 14.58 61.99 11.66
  Q 64.88 5.84 70.07 4.01
  C 80.74 0.22 91.03 7.02 90.89 18.50
  Q 90.75 30.02 90.75 42.50
  Q 90.75 43.01 90.24 43.01
  L 80.50 42.99
  Q 79.94 42.99 79.94 42.43
  Q 79.97 30.22 79.96 17.93
  Q 79.96 14.19 76.08 13.43
  Z"
/>
<path fill="#ff2400" d="
  M 163.79 21.94
  C 170.09 20.21 167.21 12.56 162.45 13.77
  Q 159.26 14.59 159.23 18.13
  Q 159.14 30.71 159.25 42.31
  Q 159.26 43.00 158.56 43.00
  L 148.93 43.01
  Q 148.19 43.01 148.20 42.27
  Q 148.36 33.65 148.26 24.11
  Q 148.20 18.29 148.89 14.21
  C 149.68 9.62 153.43 5.59 157.80 4.07
  C 166.44 1.05 174.92 4.82 178.06 13.57
  Q 180.06 19.16 177.06 24.68
  Q 172.25 33.53 162.01 33.18
  A 0.87 0.86 1.0 0 1 161.17 32.32
  L 161.15 21.95
  Q 161.15 21.27 161.79 21.50
  L 163.00 21.92
  A 1.27 1.26 -43.2 0 0 163.79 21.94
  Z"
/>
<path fill="#ff2400" d="
  M 130.42 32.11
  Q 130.52 32.11 130.58 32.11
  Q 134.47 32.07 134.48 27.64
  Q 134.53 15.56 134.48 4.30
  Q 134.48 3.74 135.04 3.74
  L 144.74 3.74
  Q 145.38 3.74 145.38 4.39
  Q 145.28 14.82 145.37 27.38
  C 145.46 38.91 134.10 46.34 123.70 41.51
  Q 118.30 39.00 116.14 33.48
  Q 114.93 30.38 115.02 24.52
  Q 115.19 14.36 115.03 4.42
  Q 115.02 3.75 115.70 3.75
  L 125.81 3.74
  Q 126.45 3.74 126.45 4.38
  Q 126.43 15.98 126.57 28.33
  Q 126.61 32.15 130.42 32.11
  Z"
/>
<path fill="#ff2400" d="
  M 47.28 42.52
  L 47.04 17.95
  A 2.26 2.25 -0.4 0 1 49.30 15.67
  L 55.70 15.66
  A 2.29 2.28 -90.0 0 1 57.98 17.95
  L 57.98 42.51
  A 0.50 0.49 -90.0 0 1 57.49 43.01
  L 47.77 43.00
  A 0.49 0.48 0.0 0 1 47.28 42.52
  Z"
/>
<rect fill="#ff2400" x="93.75" y="17.91" width="18.52" height="9.56" rx="2.59"/>
<path fill="#00cfa6" d="
  M 21.53 66.01
  C 17.32 66.01 13.51 61.95 13.50 57.76
  Q 13.48 53.05 13.46 48.04
  Q 13.46 47.48 14.02 47.48
  L 178.50 47.48
  A 0.41 0.40 0.7 0 1 178.91 47.89
  Q 178.77 51.63 178.94 56.24
  Q 179.06 59.52 177.52 61.80
  C 175.86 64.25 173.52 66.02 170.50 66.01
  Q 96.37 65.98 21.53 66.01
  Z
  M 82.85 55.84
  Q 85.00 53.31 82.46 51.56
  Q 80.71 50.36 77.05 50.83
  Q 76.49 50.90 76.49 51.46
  L 76.49 62.45
  Q 76.49 62.98 77.02 63.02
  C 80.26 63.28 85.41 63.11 84.39 58.30
  Q 84.27 57.75 83.83 57.40
  L 82.94 56.70
  Q 82.44 56.31 82.85 55.84
  Z
  M 95.23 58.14
  A 0.42 0.42 0.0 0 1 95.64 57.73
  L 99.01 57.68
  A 0.42 0.42 0.0 0 0 99.43 57.27
  L 99.45 56.20
  A 0.42 0.42 0.0 0 0 99.03 55.77
  L 95.58 55.76
  A 0.42 0.42 0.0 0 1 95.17 55.33
  L 95.25 53.20
  A 0.42 0.42 0.0 0 1 95.66 52.80
  L 99.43 52.75
  A 0.42 0.42 0.0 0 0 99.84 52.31
  L 99.77 51.18
  A 0.42 0.42 0.0 0 0 99.35 50.79
  L 93.18 50.79
  A 0.42 0.42 0.0 0 0 92.76 51.21
  L 92.76 62.58
  A 0.42 0.42 0.0 0 0 93.18 63.00
  L 99.52 63.03
  A 0.42 0.42 0.0 0 0 99.94 62.61
  L 99.96 61.38
  A 0.42 0.42 0.0 0 0 99.53 60.95
  L 95.63 60.97
  A 0.42 0.42 0.0 0 1 95.20 60.54
  L 95.23 58.14
  Z
  M 110.40 52.97
  A 0.46 0.46 0.0 0 1 110.86 53.43
  L 110.84 62.51
  A 0.46 0.46 0.0 0 0 111.30 62.97
  L 112.77 62.99
  A 0.46 0.46 0.0 0 0 113.23 62.53
  L 113.26 53.39
  A 0.46 0.46 0.0 0 1 113.74 52.93
  L 116.25 53.06
  A 0.46 0.46 0.0 0 0 116.73 52.67
  L 116.92 51.34
  A 0.46 0.46 0.0 0 0 116.47 50.82
  L 107.54 50.79
  A 0.46 0.46 0.0 0 0 107.08 51.28
  L 107.17 52.57
  A 0.46 0.46 0.0 0 0 107.63 53.00
  L 110.40 52.97
  Z"
/>
<path fill="#000000" d="
  M 82.94 56.70
  L 83.83 57.40
  Q 84.27 57.75 84.39 58.30
  C 85.41 63.11 80.26 63.28 77.02 63.02
  Q 76.49 62.98 76.49 62.45
  L 76.49 51.46
  Q 76.49 50.90 77.05 50.83
  Q 80.71 50.36 82.46 51.56
  Q 85.00 53.31 82.85 55.84
  Q 82.44 56.31 82.94 56.70
  Z
  M 78.69 53.17
  L 78.75 55.45
  A 0.53 0.53 0.0 0 0 79.30 55.97
  L 79.72 55.95
  A 1.91 1.47 -1.7 0 0 81.59 54.43
  L 81.57 54.03
  A 1.91 1.47 -1.7 0 0 79.62 52.61
  L 79.20 52.63
  A 0.53 0.53 0.0 0 0 78.69 53.17
  Z
  M 78.70 58.11
  L 78.74 60.75
  A 0.51 0.51 0.0 0 0 79.26 61.25
  L 80.11 61.24
  A 2.30 1.71 -1.0 0 0 82.38 59.49
  L 82.38 59.25
  A 2.30 1.71 -1.0 0 0 80.05 57.58
  L 79.20 57.59
  A 0.51 0.51 0.0 0 0 78.70 58.11
  Z"
/>
<path fill="#000000" d="
  M 95.23 58.14
  L 95.20 60.54
  A 0.42 0.42 0.0 0 0 95.63 60.97
  L 99.53 60.95
  A 0.42 0.42 0.0 0 1 99.96 61.38
  L 99.94 62.61
  A 0.42 0.42 0.0 0 1 99.52 63.03
  L 93.18 63.00
  A 0.42 0.42 0.0 0 1 92.76 62.58
  L 92.76 51.21
  A 0.42 0.42 0.0 0 1 93.18 50.79
  L 99.35 50.79
  A 0.42 0.42 0.0 0 1 99.77 51.18
  L 99.84 52.31
  A 0.42 0.42 0.0 0 1 99.43 52.75
  L 95.66 52.80
  A 0.42 0.42 0.0 0 0 95.25 53.20
  L 95.17 55.33
  A 0.42 0.42 0.0 0 0 95.58 55.76
  L 99.03 55.77
  A 0.42 0.42 0.0 0 1 99.45 56.20
  L 99.43 57.27
  A 0.42 0.42 0.0 0 1 99.01 57.68
  L 95.64 57.73
  A 0.42 0.42 0.0 0 0 95.23 58.14
  Z"
/>
<path fill="#000000" d="
  M 110.40 52.97
  L 107.63 53.00
  A 0.46 0.46 0.0 0 1 107.17 52.57
  L 107.08 51.28
  A 0.46 0.46 0.0 0 1 107.54 50.79
  L 116.47 50.82
  A 0.46 0.46 0.0 0 1 116.92 51.34
  L 116.73 52.67
  A 0.46 0.46 0.0 0 1 116.25 53.06
  L 113.74 52.93
  A 0.46 0.46 0.0 0 0 113.26 53.39
  L 113.23 62.53
  A 0.46 0.46 0.0 0 1 112.77 62.99
  L 111.30 62.97
  A 0.46 0.46 0.0 0 1 110.84 62.51
  L 110.86 53.43
  A 0.46 0.46 0.0 0 0 110.40 52.97
  Z"
/>
<path fill="#00cfa6" d="
  M 78.69 53.17
  A 0.53 0.53 0.0 0 1 79.20 52.63
  L 79.62 52.61
  A 1.91 1.47 -1.7 0 1 81.57 54.03
  L 81.59 54.43
  A 1.91 1.47 -1.7 0 1 79.72 55.95
  L 79.30 55.97
  A 0.53 0.53 0.0 0 1 78.75 55.45
  L 78.69 53.17
  Z"
/>
<path fill="#00cfa6" d="
  M 78.70 58.11
  A 0.51 0.51 0.0 0 1 79.20 57.59
  L 80.05 57.58
  A 2.30 1.71 -1.0 0 1 82.38 59.25
  L 82.38 59.49
  A 2.30 1.71 -1.0 0 1 80.11 61.24
  L 79.26 61.25
  A 0.51 0.51 0.0 0 1 78.74 60.75
  L 78.70 58.11
  Z"
/>
</svg>
