<svg xmlns="http://www.w3.org/2000/svg" viewBox="0 0 560.3 171.2"><path d="M103.3 79.9l6.1-21.3h28.3c14.8 0 24-6.7 28.1-21.1l2.3-7.9C173.2 11.3 164.7 0 145.8 0h-123L0 79.9h103.3zm42.4-58.3l-4.8 17.2H115l4.9-17.2h25.8zm32.8 58.3l7.6-13.4h35v13.4h23.1V0H199l-47.1 79.9h26.6zm33-58.2h9.6v25.4h-24l14.4-25.4zm126.4 15l2.1-7.2C345.2 11.1 336.7 0 317.8 0h-43.7l-22.8 79.9h24l6.3-22h14.8l6.7 22h24.6l-7.2-23.5c8.7-2.7 14.4-9.1 17.4-19.7m-46-15.1h25.8l-4.8 17.2H287l4.9-17.2zm68.8 58.3L383.6 0h-24l-22.8 79.9zM210.6 91.3l-27 31.9-11.1-31.9H68.9L46 171.2h103.3l12.6-44.2 8.4 24.7h15.4l22.3-26.2-13.1 45.7h23.9l22.8-79.9zm63 0l-47.1 79.9h26.7l7.6-13.4h35v13.4h23.1V91.3h-45.3zm-1.8 47.1l14.4-25.4h9.6v25.4h-24zm127.9-24.3l6.5-22.8h-72.7l-6.5 22.8h26.3L337 171.2h23.9l16.3-57.1zm31.9 0h36.3l6.6-22.8h-38.7c-14.8 0-24 6.7-28.1 21.1l-8.4 29.2c-5.4 18.7 3.3 29.6 22.1 29.6h30.1l6.5-22.8h-36.3l9.9-34.3zm104.7-22.8l-8.1 28.5h-27.4l8.1-28.5H485l-22.8 79.9h23.9l8.2-28.6h27.4l-8.2 28.6h24l22.8-79.9z" fill="#f8ff14"/></svg>