<?xml version="1.0" encoding="UTF-8" standalone="no"?>
<!DOCTYPE svg PUBLIC "-//W3C//DTD SVG 1.1//EN" "http://www.w3.org/Graphics/SVG/1.1/DTD/svg11.dtd">
<svg xmlns="http://www.w3.org/2000/svg" version="1.1" viewBox="0.00 0.00 190.00 70.00">
<path fill="#ffffff" d="
  M 12.57 24.34
  C 9.10 24.68 6.43 28.78 10.70 30.59
  C 16.81 33.17 26.47 34.76 26.82 43.35
  C 27.01 47.91 23.01 52.05 18.91 52.81
  C 15.45 53.45 9.80 53.58 6.70 51.95
  Q 2.33 49.66 0.21 45.13
  A 0.30 0.29 59.7 0 1 0.30 44.77
  L 5.09 41.37
  Q 5.27 41.24 5.36 41.44
  Q 8.89 48.80 16.96 46.90
  C 21.53 45.83 20.61 41.60 16.83 40.13
  C 12.56 38.47 7.09 37.17 3.94 33.57
  C 0.58 29.72 1.46 23.82 5.28 20.79
  Q 9.71 17.27 16.18 18.21
  Q 22.72 19.17 26.40 25.57
  Q 26.47 25.69 26.37 25.79
  Q 24.05 27.98 21.31 29.29
  Q 21.17 29.36 21.09 29.22
  Q 18.12 23.81 12.57 24.34
  Z"
/>
<path fill="#ffffff" d="
  M 76.98 24.92
  L 76.73 52.45
  A 0.62 0.62 0.0 0 1 76.10 53.07
  L 69.99 53.03
  A 0.62 0.62 0.0 0 1 69.37 52.41
  L 69.56 24.89
  A 0.62 0.62 0.0 0 0 68.93 24.27
  L 61.96 24.38
  A 0.62 0.62 0.0 0 1 61.33 23.76
  L 61.29 19.11
  A 0.62 0.62 0.0 0 1 61.92 18.48
  L 84.12 18.55
  A 0.62 0.62 0.0 0 1 84.74 19.19
  L 84.59 23.82
  A 0.62 0.62 0.0 0 1 83.96 24.42
  L 77.62 24.30
  A 0.62 0.62 0.0 0 0 76.98 24.92
  Z"
/>
<path fill="#ffffff" d="
  M 190.00 18.94
  L 190.00 26.52
  L 180.77 26.39
  Q 180.12 26.38 180.11 27.03
  L 180.02 52.51
  Q 180.02 53.04 179.49 53.04
  L 171.54 53.02
  Q 171.06 53.01 171.07 52.54
  L 171.28 26.99
  Q 171.29 26.45 170.74 26.45
  L 161.70 26.42
  A 0.45 0.45 0.0 0 1 161.25 25.95
  L 161.42 19.49
  Q 161.44 18.97 161.96 18.97
  L 190.00 18.94
  Z"
/>
<path fill="#ffffff" d="
  M 30.57 44.68
  L 46.00 19.25
  A 0.51 0.51 0.0 0 1 46.88 19.26
  L 48.74 22.47
  A 0.51 0.51 0.0 0 1 48.73 22.99
  L 35.32 44.96
  A 0.51 0.51 0.0 0 1 34.91 45.21
  L 31.03 45.45
  A 0.51 0.51 0.0 0 1 30.57 44.68
  Z"
/>
<path fill="#ffffff" d="
  M 117.63 35.36
  C 120.98 36.55 122.92 39.77 122.95 43.22
  C 123.03 50.08 116.76 52.94 110.79 52.99
  Q 102.30 53.07 93.63 53.01
  A 0.50 0.49 -90.0 0 1 93.14 52.51
  L 93.48 19.29
  Q 93.48 18.99 93.78 18.99
  Q 102.90 18.87 111.25 19.06
  C 116.39 19.17 122.32 22.01 121.94 28.02
  Q 121.67 32.29 117.57 34.39
  Q 116.47 34.95 117.63 35.36
  Z
  M 102.26 26.29
  L 102.24 32.05
  A 0.43 0.43 0.0 0 0 102.67 32.48
  L 109.11 32.49
  A 3.75 3.17 0.1 0 0 112.87 29.33
  L 112.87 29.05
  A 3.75 3.17 0.1 0 0 109.13 25.87
  L 102.69 25.86
  A 0.43 0.43 0.0 0 0 102.26 26.29
  Z
  M 102.18 39.42
  L 102.20 45.64
  A 0.46 0.46 0.0 0 0 102.66 46.10
  L 108.95 46.09
  A 5.03 3.44 -0.1 0 0 113.97 42.64
  L 113.97 42.38
  A 5.03 3.44 -0.1 0 0 108.93 38.95
  L 102.64 38.96
  A 0.46 0.46 0.0 0 0 102.18 39.42
  Z"
/>
<path fill="#ffffff" d="
  M 139.03 32.33
  L 154.45 32.35
  A 0.45 0.45 0.0 0 1 154.90 32.81
  L 154.82 39.09
  A 0.45 0.45 0.0 0 1 154.36 39.54
  L 138.85 39.49
  A 0.45 0.45 0.0 0 0 138.40 39.94
  L 138.44 45.53
  A 0.45 0.45 0.0 0 0 138.89 45.98
  L 157.25 45.93
  A 0.45 0.45 0.0 0 1 157.70 46.38
  L 157.76 52.58
  A 0.45 0.45 0.0 0 1 157.31 53.03
  L 130.09 53.04
  A 0.45 0.45 0.0 0 1 129.64 52.59
  L 129.87 19.42
  A 0.45 0.45 0.0 0 1 130.32 18.97
  L 156.11 18.96
  A 0.45 0.45 0.0 0 1 156.56 19.41
  L 156.52 25.63
  A 0.45 0.45 0.0 0 1 156.07 26.08
  L 138.99 26.01
  A 0.45 0.45 0.0 0 0 138.53 26.47
  L 138.58 31.88
  A 0.45 0.45 0.0 0 0 139.03 32.33
  Z"
/>
<path fill="#ffffff" d="
  M 52.46 36.76
  A 0.58 0.58 0.0 0 0 51.45 36.73
  L 42.04 52.42
  A 1.27 1.27 0.0 0 1 40.95 53.04
  L 33.77 53.01
  Q 33.12 53.01 32.84 52.41
  L 31.39 49.33
  Q 31.07 48.64 31.83 48.64
  Q 34.68 48.65 38.14 48.76
  Q 39.31 48.80 39.88 47.83
  Q 45.63 38.15 51.99 27.71
  A 0.29 0.29 0.0 0 1 52.49 27.72
  L 61.26 43.53
  Q 61.80 44.48 60.70 44.45
  L 57.71 44.35
  Q 56.49 44.31 55.91 43.23
  L 52.46 36.76
  Z"
/>
<path fill="#ffffff" d="
  M 51.13 48.71
  L 61.42 48.70
  A 0.72 0.72 0.0 0 1 62.14 49.39
  L 62.26 52.27
  A 0.72 0.72 0.0 0 1 61.54 53.02
  L 49.47 53.05
  A 0.72 0.72 0.0 0 1 48.85 51.97
  L 50.50 49.07
  A 0.72 0.72 0.0 0 1 51.13 48.71
  Z"
/>
</svg>
