<?xml version="1.0" encoding="UTF-8" standalone="no"?>
<!DOCTYPE svg PUBLIC "-//W3C//DTD SVG 1.1//EN" "http://www.w3.org/Graphics/SVG/1.1/DTD/svg11.dtd">
<svg xmlns="http://www.w3.org/2000/svg" version="1.1" viewBox="0.00 0.00 190.00 70.00">
<g stroke-width="2.00" fill="none" stroke-linecap="butt">
<path stroke="#fce39e" vector-effect="non-scaling-stroke" d="
  M 90.89 20.99
  L 97.75 29.18"
/>
<path stroke="#f8be2c" vector-effect="non-scaling-stroke" d="
  M 128.17 27.63
  Q 121.62 28.82 114.36 27.72"
/>
<path stroke="#f59d1a" vector-effect="non-scaling-stroke" d="
  M 121.76 39.25
  L 104.20 38.70"
/>
<path stroke="#ef6c18" vector-effect="non-scaling-stroke" d="
  M 116.95 43.26
  L 98.16 43.08"
/>
<path stroke="#f28d2a" vector-effect="non-scaling-stroke" d="
  M 113.86 45.43
  L 94.82 45.72"
/>
<path stroke="#f6a62b" vector-effect="non-scaling-stroke" d="
  M 140.93 37.21
  L 134.14 48.57"
/>
<path stroke="#f8be2c" vector-effect="non-scaling-stroke" d="
  M 158.46 39.61
  Q 156.59 40.47 155.49 41.95
  Q 153.77 44.26 153.71 44.32
  Q 151.11 47.12 148.60 50.02
  Q 147.53 51.26 147.25 52.58
  Q 146.95 54.01 146.96 55.53"
/>
<path stroke="#f59d1a" vector-effect="non-scaling-stroke" d="
  M 141.62 48.42
  Q 144.76 41.89 151.00 37.20"
/>
<path stroke="#f6a62b" vector-effect="non-scaling-stroke" d="
  M 189.92 28.00
  L 176.16 28.14"
/>
<path stroke="#f59d1a" vector-effect="non-scaling-stroke" d="
  M 186.84 33.41
  Q 186.19 33.40 185.86 33.29
  Q 185.73 33.25 185.70 33.11
  Q 185.69 33.06 185.74 33.02
  Q 185.96 32.85 185.66 32.85
  Q 179.67 32.92 173.40 32.82"
/>
<path stroke="#f8be2c" vector-effect="non-scaling-stroke" d="
  M 180.51 43.98
  Q 173.23 42.52 166.63 44.13"
/>
</g>
<path fill="#ffffff" d="
  M 90.89 20.99
  L 97.75 29.18
  L 79.06 60.41
  Q 78.71 60.99 78.04 60.99
  L 67.47 60.98
  A 0.31 0.31 0.0 0 1 67.21 60.50
  L 74.27 48.90
  Q 74.86 47.93 74.51 46.85
  L 66.58 22.48
  A 0.38 0.37 -39.0 0 0 65.90 22.41
  Q 65.56 23.00 65.09 23.42
  Q 60.85 27.24 56.10 31.40
  Q 55.69 31.76 56.01 32.20
  L 67.25 48.01
  A 0.31 0.30 -17.6 0 1 67.00 48.49
  L 54.99 48.50
  A 1.15 1.15 0.0 0 1 54.03 47.98
  L 44.48 33.33
  Q 44.03 32.65 43.91 33.46
  L 41.71 47.93
  Q 41.63 48.50 41.06 48.50
  L 31.77 48.50
  Q 31.01 48.50 31.13 47.75
  L 37.00 9.48
  Q 37.07 9.02 37.54 9.02
  L 46.99 9.01
  Q 47.75 9.01 47.63 9.75
  L 44.31 30.78
  Q 44.16 31.74 44.86 31.07
  L 59.42 17.23
  A 1.74 1.73 23.2 0 1 60.61 16.76
  L 76.51 16.76
  Q 77.05 16.76 77.19 17.28
  L 81.80 34.99
  Q 82.02 35.84 82.47 35.08
  L 90.89 20.99
  Z"
/>
<path fill="#f9c73d" d="
  M 140.93 37.21
  L 134.14 48.57
  L 127.32 37.72
  Q 127.04 37.29 127.31 36.85
  L 143.74 9.44
  Q 144.00 9.00 144.50 9.01
  L 156.95 9.02
  A 0.45 0.44 -74.8 0 1 157.33 9.69
  L 140.93 37.21
  Z"
/>
<path fill="#ffffff" d="
  M 0.00 41.72
  L 0.00 41.12
  L 7.94 37.80
  Q 8.48 37.57 8.76 38.10
  L 9.51 39.53
  Q 9.86 40.19 10.51 40.53
  Q 14.74 42.76 19.17 40.61
  C 20.81 39.81 21.57 37.83 20.11 36.39
  Q 19.02 35.30 17.56 34.83
  Q 12.19 33.09 7.97 30.86
  Q 2.57 28.01 3.95 22.40
  C 5.18 17.45 9.86 14.06 14.60 12.99
  C 21.29 11.49 29.91 11.81 33.42 18.76
  A 0.51 0.50 -24.7 0 1 33.16 19.45
  L 25.79 22.57
  A 0.70 0.69 -21.4 0 1 24.87 22.17
  L 24.43 20.99
  A 1.55 1.54 -86.9 0 0 23.70 20.17
  Q 19.23 17.78 14.98 20.38
  A 2.31 2.30 54.7 0 0 14.40 23.80
  C 15.97 25.72 20.70 27.09 23.09 27.79
  Q 26.69 28.86 29.39 31.37
  C 33.18 34.87 30.88 41.15 27.67 44.14
  C 22.28 49.17 12.61 49.38 6.25 47.44
  Q 1.85 46.10 0.00 41.72
  Z"
/>
<path fill="#f9c73d" d="
  M 128.17 27.63
  Q 121.62 28.82 114.36 27.72
  Q 113.38 23.58 109.00 23.41
  Q 101.97 23.12 97.75 29.18
  L 90.89 20.99
  Q 93.99 15.22 99.26 13.69
  C 106.69 11.52 115.41 11.54 121.91 16.05
  Q 127.57 19.97 128.17 27.63
  Z"
/>
<path fill="#f9c73d" d="
  M 189.92 28.00
  L 176.16 28.14
  L 159.12 28.20
  Q 158.48 28.20 158.48 27.56
  L 158.48 17.39
  Q 158.48 16.77 159.11 16.77
  L 182.28 16.77
  Q 182.85 16.77 183.15 17.26
  L 189.92 28.00
  Z"
/>
<path fill="#f7b41a" d="
  M 128.17 27.63
  Q 127.17 34.83 121.76 39.25
  L 104.20 38.70
  Q 108.42 35.47 111.79 32.81
  Q 114.66 30.55 114.36 27.72
  Q 121.62 28.82 128.17 27.63
  Z"
/>
<path fill="#f28519" d="
  M 189.92 28.00
  Q 189.96 27.92 190.00 27.85
  L 190.00 28.53
  L 186.84 33.41
  Q 186.19 33.40 185.86 33.29
  Q 185.73 33.25 185.70 33.11
  Q 185.69 33.06 185.74 33.02
  Q 185.96 32.85 185.66 32.85
  Q 179.67 32.92 173.40 32.82
  L 176.16 28.14
  L 189.92 28.00
  Z"
/>
<path fill="#f7b41a" d="
  M 173.40 32.82
  Q 179.67 32.92 185.66 32.85
  Q 185.96 32.85 185.74 33.02
  Q 185.69 33.06 185.70 33.11
  Q 185.73 33.25 185.86 33.29
  Q 186.19 33.40 186.84 33.41
  L 180.51 43.98
  Q 173.23 42.52 166.63 44.13
  L 173.40 32.82
  Z"
/>
<path fill="#f7b41a" d="
  M 158.46 39.61
  Q 156.59 40.47 155.49 41.95
  Q 153.77 44.26 153.71 44.32
  Q 151.11 47.12 148.60 50.02
  Q 147.53 51.26 147.25 52.58
  Q 146.95 54.01 146.96 55.53
  L 146.95 49.20
  Q 146.95 48.69 146.45 48.66
  L 141.62 48.42
  Q 144.76 41.89 151.00 37.20
  L 157.91 37.14
  Q 158.44 37.13 158.44 37.67
  L 158.46 39.61
  Z"
/>
<path fill="#f28519" d="
  M 140.93 37.21
  L 151.00 37.20
  Q 144.76 41.89 141.62 48.42
  L 134.14 48.57
  L 140.93 37.21
  Z"
/>
<path fill="#f28519" d="
  M 104.20 38.70
  L 121.76 39.25
  Q 118.98 42.27 116.95 43.26
  L 98.16 43.08
  L 104.20 38.70
  Z"
/>
<path fill="#f9c73d" d="
  M 158.46 39.61
  L 158.46 56.41
  A 0.48 0.48 0.0 0 1 157.98 56.89
  L 147.34 56.84
  Q 146.90 56.83 146.78 56.41
  Q 146.66 56.00 146.96 55.53
  Q 146.95 54.01 147.25 52.58
  Q 147.53 51.26 148.60 50.02
  Q 151.11 47.12 153.71 44.32
  Q 153.77 44.26 155.49 41.95
  Q 156.59 40.47 158.46 39.61
  Z"
/>
<path fill="#eb5217" d="
  M 98.16 43.08
  L 116.95 43.26
  L 113.86 45.43
  L 94.82 45.72
  Q 94.69 45.61 94.63 45.47
  Q 94.48 45.14 94.80 44.96
  L 98.16 43.08
  Z"
/>
<path fill="#f9c73d" d="
  M 180.51 43.98
  L 170.59 60.50
  Q 170.29 60.99 169.71 60.99
  L 157.28 60.98
  A 0.54 0.54 0.0 0 1 156.82 60.16
  L 166.63 44.13
  Q 173.23 42.52 180.51 43.98
  Z"
/>
<path fill="#f9c73d" d="
  M 113.86 45.43
  L 127.51 45.61
  Q 128.08 45.62 128.08 46.19
  L 128.12 56.12
  Q 128.12 56.85 127.38 56.85
  L 102.07 56.85
  A 1.30 1.28 -14.8 0 1 100.95 56.21
  L 94.82 45.72
  L 113.86 45.43
  Z"
/>
</svg>
