<?xml version="1.0" encoding="UTF-8" standalone="no"?>
<!DOCTYPE svg PUBLIC "-//W3C//DTD SVG 1.1//EN" "http://www.w3.org/Graphics/SVG/1.1/DTD/svg11.dtd">
<svg xmlns="http://www.w3.org/2000/svg" version="1.1" viewBox="0.00 0.00 288.00 77.00">
<path fill="#00ffe6" d="
  M 138.28 0.00
  L 153.70 0.00
  L 153.67 17.08
  Q 153.67 17.62 154.21 17.62
  L 168.19 17.63
  Q 168.75 17.63 168.75 18.19
  L 168.76 30.75
  Q 168.76 31.25 168.25 31.25
  L 154.24 31.25
  Q 153.65 31.25 153.65 31.84
  Q 153.70 43.39 153.67 56.54
  C 153.66 59.49 154.81 62.32 158.23 62.38
  Q 163.33 62.47 168.15 62.44
  Q 168.75 62.43 168.75 63.03
  L 168.76 75.28
  Q 168.76 75.95 168.08 75.97
  C 153.93 76.22 137.96 77.47 137.82 57.79
  Q 137.73 44.28 137.82 31.83
  Q 137.82 31.24 137.24 31.24
  L 128.03 31.25
  Q 127.56 31.25 127.56 30.78
  L 127.56 18.27
  Q 127.56 17.63 128.21 17.63
  L 137.74 17.63
  Q 138.21 17.63 138.21 17.16
  L 138.28 0.00
  Z"
/>
<path fill="#00ffe6" d="
  M 188.42 0.00
  L 203.81 0.00
  L 203.81 17.02
  Q 203.81 17.62 204.41 17.62
  L 218.32 17.63
  Q 218.96 17.63 218.96 18.26
  L 218.96 30.77
  A 0.48 0.48 0.0 0 1 218.48 31.25
  L 204.44 31.25
  Q 203.78 31.25 203.78 31.90
  Q 203.78 43.39 203.81 56.85
  Q 203.82 62.44 209.28 62.44
  Q 214.08 62.45 218.36 62.41
  Q 218.96 62.41 218.96 63.01
  L 218.95 75.28
  Q 218.95 76.01 218.23 76.00
  Q 212.28 75.98 206.02 75.92
  C 194.94 75.82 188.02 69.77 187.96 58.43
  Q 187.89 45.42 187.95 31.88
  Q 187.95 31.25 187.31 31.25
  L 178.21 31.25
  Q 177.67 31.25 177.67 30.71
  L 177.66 17.99
  Q 177.66 17.63 178.02 17.63
  L 187.78 17.63
  Q 188.37 17.63 188.37 17.04
  L 188.42 0.00
  Z"
/>
<path fill="#00ffe6" d="
  M 240.82 49.94
  A 1.50 1.50 0.0 0 0 241.72 50.24
  L 255.26 50.24
  Q 256.09 50.24 255.82 51.03
  L 247.49 75.26
  Q 247.30 75.82 246.72 75.69
  Q 231.84 72.41 228.62 59.30
  Q 227.64 55.35 227.76 48.62
  Q 227.86 42.87 227.94 38.30
  C 228.16 25.09 238.34 16.29 251.24 16.05
  Q 257.69 15.92 264.66 16.04
  A 0.25 0.25 0.0 0 1 264.85 16.44
  Q 252.81 31.79 240.73 47.18
  C 240.02 48.09 239.72 49.13 240.82 49.94
  Z"
/>
<path fill="#00ffe6" d="
  M 288.00 35.02
  L 288.00 57.42
  Q 284.58 71.80 271.14 75.17
  C 264.92 76.72 257.83 75.97 251.31 76.18
  A 0.26 0.25 -72.2 0 1 251.10 75.77
  L 276.25 43.26
  A 1.66 1.60 -26.6 0 0 276.59 42.30
  Q 276.62 40.56 274.88 40.56
  Q 267.70 40.56 260.99 40.54
  A 0.23 0.22 -80.6 0 1 260.78 40.24
  L 268.59 16.72
  A 0.42 0.42 0.0 0 1 269.08 16.44
  Q 284.68 19.58 288.00 35.02
  Z"
/>
<path fill="#00ffe6" d="
  M 96.97 77.00
  L 83.49 77.00
  C 71.29 76.09 61.21 68.52 60.92 55.67
  Q 60.72 47.15 60.90 39.43
  C 61.20 26.63 70.38 17.48 83.15 16.84
  Q 89.65 16.51 96.86 16.73
  C 109.91 17.13 120.01 26.05 119.86 39.25
  Q 119.79 45.53 119.86 51.65
  Q 119.87 52.28 119.24 52.28
  L 77.45 52.28
  Q 76.82 52.28 76.77 52.91
  C 76.08 61.77 81.10 63.77 88.66 63.66
  C 94.29 63.57 102.49 64.74 104.06 57.57
  A 0.65 0.64 -83.9 0 1 104.69 57.06
  L 119.03 57.05
  Q 119.57 57.05 119.55 57.59
  Q 119.28 65.95 113.53 70.83
  Q 106.96 76.40 96.97 77.00
  Z
  M 76.85 40.84
  L 103.95 40.74
  A 0.31 0.31 0.0 0 0 104.26 40.43
  L 104.25 39.14
  A 9.42 9.16 89.8 0 0 95.06 29.75
  L 85.66 29.79
  A 9.42 9.16 89.8 0 0 76.53 39.24
  L 76.54 40.53
  A 0.31 0.31 0.0 0 0 76.85 40.84
  Z"
/>
<path fill="#00ffe6" d="
  M 0.00 75.96
  L 0.00 68.00
  L 30.99 31.65
  A 0.30 0.30 0.0 0 0 30.76 31.16
  L 1.55 31.17
  A 0.21 0.21 0.0 0 1 1.34 30.96
  L 1.34 18.00
  A 0.38 0.38 0.0 0 1 1.72 17.62
  L 53.75 17.63
  Q 54.12 17.63 54.12 18.00
  L 54.12 25.01
  Q 54.12 25.59 53.75 26.03
  L 23.03 62.04
  A 0.32 0.32 0.0 0 0 23.27 62.56
  L 52.90 62.55
  Q 53.49 62.55 53.49 63.15
  L 53.49 75.31
  Q 53.49 75.95 52.86 75.95
  L 0.00 75.96
  Z"
/>
</svg>
